<svg width="950" height="127" viewBox="0 0 950 127" fill="none" xmlns="http://www.w3.org/2000/svg">
<rect width="950" height="127" fill="black"/>
<path d="M382.619 50.1055C383.088 50.1055 383.334 50.334 383.357 50.791L383.146 58.4551C383.146 58.7598 383.018 58.9121 382.76 58.9121L379.807 58.9824C379.584 58.9824 379.461 58.8477 379.438 58.5781L379.068 54.0605C377.639 53.709 376.32 53.5332 375.113 53.5332C373.906 53.5332 372.887 53.7148 372.055 54.0781C371.223 54.4297 370.537 55.0039 369.998 55.8008C368.955 57.3477 368.434 59.9316 368.434 63.5527C368.434 69.0254 369.758 72.3008 372.406 73.3789C373.273 73.7305 374.328 73.9062 375.57 73.9062C376.812 73.9062 378.125 73.6836 379.508 73.2383L379.42 70.8828C379.443 70.6719 379.584 70.543 379.842 70.4961L382.76 70.0039C382.959 70.0039 383.082 70.1387 383.129 70.4082L383.832 77.2637C383.832 77.4512 383.697 77.5566 383.428 77.5801L380.404 77.8438C379.936 77.8438 379.689 77.6152 379.666 77.1582L379.631 76.4199C378.002 77.2871 376.279 77.7207 374.463 77.7207C372.658 77.7207 371.135 77.4102 369.893 76.7891C368.662 76.168 367.631 75.2539 366.799 74.0469C365.123 71.5977 364.285 68.0352 364.285 63.3594C364.285 58.7188 365.223 55.2734 367.098 53.0234C368.809 50.9609 371.252 49.9297 374.428 49.9297C376.42 49.9297 378.096 50.1523 379.455 50.5977L382.619 50.1055ZM388.174 67.1211C388.174 65.1172 388.338 63.4531 388.666 62.1289C389.006 60.793 389.504 59.7266 390.16 58.9297C391.379 57.4883 393.365 56.7676 396.119 56.7676C398.041 56.7676 399.441 56.9609 400.32 57.3477C401.211 57.7344 401.908 58.1738 402.412 58.666C402.928 59.1582 403.367 59.791 403.73 60.5645C404.457 62.1465 404.82 64.1387 404.82 66.541C404.82 68.9316 404.65 70.7773 404.311 72.0781C403.982 73.3789 403.484 74.4219 402.816 75.207C401.574 76.6367 399.564 77.3516 396.787 77.3516C393.881 77.3516 391.766 76.6484 390.441 75.2422C388.93 73.6484 388.174 70.9414 388.174 67.1211ZM400.145 72.5879C400.496 72.1191 400.76 71.4629 400.936 70.6191C401.111 69.7754 401.199 68.7441 401.199 67.5254C401.199 66.3066 401.135 65.3223 401.006 64.5723C400.877 63.8223 400.695 63.2012 400.461 62.709C400.238 62.2051 399.969 61.8125 399.652 61.5312C399.336 61.2383 398.99 61.0215 398.615 60.8809C398.053 60.6699 397.309 60.5645 396.383 60.5645C395.457 60.5645 394.719 60.6348 394.168 60.7754C393.617 60.916 393.16 61.2148 392.797 61.6719C392.105 62.5625 391.76 64.3555 391.76 67.0508C391.76 70.8828 392.791 73.0449 394.854 73.5371C395.486 73.6895 396.172 73.7656 396.91 73.7656C397.648 73.7656 398.281 73.6895 398.809 73.5371C399.348 73.373 399.793 73.0566 400.145 72.5879ZM420.922 61.127C419.434 61.127 417.734 61.7363 415.824 62.9551L416.035 73.4844L417.951 73.2734C418.15 73.2734 418.25 73.373 418.25 73.5723L417.916 76.2969C417.869 76.5547 417.74 76.6836 417.529 76.6836H410.199C410.012 76.6836 409.918 76.543 409.918 76.2617L410.27 73.5723C410.316 73.3262 410.445 73.2031 410.656 73.2031H412.15V61.584L409.461 61.5137C409.227 61.5137 409.109 61.373 409.109 61.0918L409.426 58.0508C409.449 57.8516 409.59 57.7285 409.848 57.6816L414.717 56.9609C414.928 56.9609 415.033 57.0957 415.033 57.3652V60.4062C417.447 57.9922 419.82 56.7852 422.152 56.7852C424.824 56.7852 426.418 58.0566 426.934 60.5996C427.098 61.4434 427.18 62.2344 427.18 62.9727C427.18 63.6992 427.174 64.3145 427.162 64.8184C427.15 65.3105 427.133 65.8555 427.109 66.4531L427.074 68.2812C427.051 68.9258 427.027 69.5703 427.004 70.2148L426.934 72.0781C426.91 72.6758 426.887 73.2266 426.863 73.7305L428.885 73.6426C429.131 73.6426 429.254 73.7832 429.254 74.0645V76.6484C429.254 76.7891 429.219 76.8828 429.148 76.9297C429.09 76.9648 428.99 76.9883 428.85 77L423.752 77.3867C423.494 77.3867 423.365 77.2578 423.365 77C423.4 75.7227 423.418 74.5215 423.418 73.3965L423.453 70.4609C423.453 69.6289 423.453 68.8496 423.453 68.123V64.9062C423.453 63.4531 423.33 62.5273 423.084 62.1289C422.838 61.7188 422.551 61.4492 422.223 61.3203C421.895 61.1914 421.461 61.127 420.922 61.127ZM441.77 76.8945C441.207 76.9297 440.375 76.9473 439.273 76.9473C438.184 76.9473 437.293 76.8359 436.602 76.6133C435.922 76.3906 435.359 76.0332 434.914 75.541C434.035 74.5684 433.596 73.0039 433.596 70.8477C433.596 69.4531 433.613 68.123 433.648 66.8574C433.695 65.5801 433.73 64.4492 433.754 63.4648C433.789 62.4688 433.824 61.4844 433.859 60.5117L431.521 60.3359C431.287 60.3242 431.17 60.166 431.17 59.8613L431.152 57.8398C431.152 57.582 431.281 57.4531 431.539 57.4531L434 57.4004C434.023 56.791 434.047 56.2109 434.07 55.6602L434.211 53.0059C434.246 52.3848 434.293 52.0332 434.352 51.9512C434.41 51.8574 434.516 51.7988 434.668 51.7754L437.938 51.3887C438.184 51.3887 438.307 51.5176 438.307 51.7754C438.307 52.1504 438.242 53 438.113 54.3242L437.85 57.2949L444.74 57.1016C444.998 57.1016 445.127 57.2422 445.127 57.5234V60.3887C445.127 60.623 444.998 60.7461 444.74 60.7578L437.621 60.459C437.422 63.2012 437.322 65.5918 437.322 67.6309C437.322 69.6699 437.363 70.9883 437.445 71.5859C437.539 72.1836 437.703 72.6465 437.938 72.9746C438.336 73.5371 439.186 73.8184 440.486 73.8184C440.861 73.8184 441.201 73.8066 441.506 73.7832C441.471 73.373 441.453 73.0684 441.453 72.8691C441.453 72.6582 441.564 72.5352 441.787 72.5L444.723 72.1484C444.969 72.1484 445.092 72.2832 445.092 72.5527L445.162 77.0176C445.162 77.2168 445.074 77.334 444.898 77.3691L442.297 77.791C442.027 77.7676 441.875 77.6562 441.84 77.457L441.77 76.8945ZM458.75 56.7676C462.219 56.7676 463.953 58.9238 463.953 63.2363C463.953 64.2559 463.93 65.5742 463.883 67.1914L463.76 70.6367C463.736 71.3281 463.707 71.9844 463.672 72.6055L463.602 74.2754L464.656 74.1875C465.043 74.1641 465.482 74.1289 465.975 74.082C466.221 74.082 466.344 74.1934 466.344 74.416L466.027 77.1934C465.992 77.4043 465.863 77.5215 465.641 77.5449L460.561 77.8613C460.396 77.8613 460.314 77.7324 460.314 77.4746L460.561 75.418C458.604 76.9297 456.477 77.6855 454.18 77.6855C452.387 77.6855 450.91 77.1641 449.75 76.1211C448.52 75.0195 447.904 73.5371 447.904 71.6738C447.904 69.248 448.742 67.543 450.418 66.5586C451.895 65.6914 454.326 65.2578 457.713 65.2578C458.416 65.2578 459.166 65.2754 459.963 65.3105C459.975 65.0059 459.98 64.7246 459.98 64.4668V63.7988C459.98 61.5137 458.979 60.3711 456.975 60.3711C455.932 60.3711 454.643 60.6875 453.107 61.3203L453.178 61.9883C453.201 62.2109 453.213 62.3867 453.213 62.5156C453.213 62.7734 453.084 62.9023 452.826 62.9023L449.855 62.9551C449.645 62.9199 449.527 62.791 449.504 62.5684L449.205 57.541C449.205 57.2598 449.334 57.1016 449.592 57.0664L452.527 56.6797C452.773 56.6797 452.896 56.8086 452.896 57.0664V58.5254C454.994 57.3535 456.945 56.7676 458.75 56.7676ZM455.41 74.3633C456.758 74.3633 458.24 73.9766 459.857 73.2031C459.881 72.4297 459.893 71.5801 459.893 70.6543C459.904 69.7168 459.922 68.791 459.945 67.877C456.863 67.877 454.725 68.1406 453.529 68.668C452.428 69.1602 451.877 69.9805 451.877 71.1289C451.877 73.2852 453.055 74.3633 455.41 74.3633ZM470.932 58.4727C471.436 57.9336 472.068 57.5117 472.83 57.207C473.592 56.8906 474.523 56.7324 475.625 56.7324C476.738 56.7324 477.975 56.9023 479.334 57.2422L482.639 56.627C482.85 56.6621 482.967 56.791 482.99 57.0137L483.289 63.2715C483.266 63.5527 483.137 63.7109 482.902 63.7461L479.967 64.1328C479.721 64.1328 479.598 64.0039 479.598 63.7461V60.7754C478.848 60.5996 478.045 60.5117 477.189 60.5117C476.334 60.5117 475.578 60.6523 474.922 60.9336C474.277 61.2148 473.773 61.6367 473.41 62.1992C472.777 63.1836 472.461 64.877 472.461 67.2793C472.461 70.8887 473.199 72.9453 474.676 73.4492C475.145 73.6133 475.684 73.6953 476.293 73.6953C477.172 73.6953 478.18 73.584 479.316 73.3613L479.387 72.1484C479.41 71.8672 479.533 71.7148 479.756 71.6914L482.533 71.7969C482.697 71.8203 482.791 71.9551 482.814 72.2012L483.131 77.7031C483.131 77.9492 483.014 78.0723 482.779 78.0723H479.404C479.229 78.0723 479.129 77.9609 479.105 77.7383L479.158 76.7363C474.916 77.5684 472.004 76.9766 470.422 74.9609C469.297 73.5078 468.734 71.1582 468.734 67.9121C468.734 65.7441 468.828 64.127 469.016 63.0605C469.203 61.9941 469.443 61.0977 469.736 60.3711C470.029 59.6445 470.428 59.0117 470.932 58.4727ZM495.77 76.8945C495.207 76.9297 494.375 76.9473 493.273 76.9473C492.184 76.9473 491.293 76.8359 490.602 76.6133C489.922 76.3906 489.359 76.0332 488.914 75.541C488.035 74.5684 487.596 73.0039 487.596 70.8477C487.596 69.4531 487.613 68.123 487.648 66.8574C487.695 65.5801 487.73 64.4492 487.754 63.4648C487.789 62.4688 487.824 61.4844 487.859 60.5117L485.521 60.3359C485.287 60.3242 485.17 60.166 485.17 59.8613L485.152 57.8398C485.152 57.582 485.281 57.4531 485.539 57.4531L488 57.4004C488.023 56.791 488.047 56.2109 488.07 55.6602L488.211 53.0059C488.246 52.3848 488.293 52.0332 488.352 51.9512C488.41 51.8574 488.516 51.7988 488.668 51.7754L491.938 51.3887C492.184 51.3887 492.307 51.5176 492.307 51.7754C492.307 52.1504 492.242 53 492.113 54.3242L491.85 57.2949L498.74 57.1016C498.998 57.1016 499.127 57.2422 499.127 57.5234V60.3887C499.127 60.623 498.998 60.7461 498.74 60.7578L491.621 60.459C491.422 63.2012 491.322 65.5918 491.322 67.6309C491.322 69.6699 491.363 70.9883 491.445 71.5859C491.539 72.1836 491.703 72.6465 491.938 72.9746C492.336 73.5371 493.186 73.8184 494.486 73.8184C494.861 73.8184 495.201 73.8066 495.506 73.7832C495.471 73.373 495.453 73.0684 495.453 72.8691C495.453 72.6582 495.564 72.5352 495.787 72.5L498.723 72.1484C498.969 72.1484 499.092 72.2832 499.092 72.5527L499.162 77.0176C499.162 77.2168 499.074 77.334 498.898 77.3691L496.297 77.791C496.027 77.7676 495.875 77.6562 495.84 77.457L495.77 76.8945ZM535.303 73.4844C535.49 73.4844 535.584 73.5957 535.584 73.8184L535.355 76.9473C535.332 77.1816 535.191 77.2988 534.934 77.2988L528.904 77.4219C528.635 77.4219 528.5 77.2812 528.5 77L528.518 73.0098C527.51 74.2051 526.373 75.1367 525.107 75.8047C523.842 76.4609 522.588 76.7891 521.346 76.7891C520.115 76.7891 519.072 76.5898 518.217 76.1914C517.361 75.7812 516.641 75.1836 516.055 74.3984C514.871 72.8164 514.279 70.5312 514.279 67.543C514.279 64.3789 514.367 61.625 514.543 59.2812L514.965 54.043L512.082 54.2715C511.953 54.2715 511.871 54.248 511.836 54.2012C511.812 54.1426 511.789 54.0371 511.766 53.8848L511.959 50.6152C511.982 50.3926 512.123 50.2695 512.381 50.2461L519.975 49.9824C520.186 50.0059 520.291 50.1406 520.291 50.3867L520.045 53.4805C520.01 53.7383 519.875 53.8672 519.641 53.8672H518.797C518.727 54.9805 518.668 55.9766 518.621 56.8555L518.48 59.2109C518.352 61.5195 518.287 63.8047 518.287 66.0664C518.287 70.4727 519.6 72.6758 522.225 72.6758C523.877 72.6758 525.535 72.1602 527.199 71.1289C527.703 70.8242 528.148 70.4961 528.535 70.1445L528.641 54.5L526.76 54.5703C526.596 54.5703 526.514 54.4414 526.514 54.1836L526.619 50.9141C526.643 50.668 526.783 50.5449 527.041 50.5449L534.916 50.334C535.127 50.3574 535.232 50.4922 535.232 50.7383L535.285 53.8848C535.285 54.1426 535.15 54.2715 534.881 54.2715L532.42 54.3594V73.7656L535.303 73.4844ZM552.811 62.0059C549.646 60.9277 547.414 60.3887 546.113 60.3887C544.707 60.3887 543.758 60.7344 543.266 61.4258C543.066 61.6953 542.967 62.0293 542.967 62.4277C542.967 62.8262 543.014 63.1719 543.107 63.4648C543.201 63.7578 543.371 64.0156 543.617 64.2383C544.109 64.707 545.059 65.0527 546.465 65.2754C547.871 65.498 549.096 65.7441 550.139 66.0137C551.193 66.2715 552.037 66.6113 552.67 67.0332C553.314 67.4434 553.771 67.9648 554.041 68.5977C554.322 69.2305 554.463 70.0449 554.463 71.041C554.463 72.0254 554.316 72.8984 554.023 73.6602C553.73 74.4219 553.314 75.0664 552.775 75.5938C551.686 76.6367 550.174 77.1582 548.24 77.1582C546.916 77.1582 545.393 76.9941 543.67 76.666L543.969 78.125C543.969 78.3125 543.834 78.418 543.564 78.4414L540.541 78.7051C540.096 78.7051 539.85 78.4766 539.803 78.0195L539.311 72.7988C539.311 72.5879 539.451 72.459 539.732 72.4121L542.475 71.9199C542.674 71.9199 542.797 72.0547 542.844 72.3242L543.055 73.4844C544.754 73.7539 546.154 73.8887 547.256 73.8887C548.357 73.8887 549.178 73.6602 549.717 73.2031C550.256 72.7344 550.525 72.1191 550.525 71.3574C550.525 70.6426 550.238 70.1328 549.664 69.8281C549.16 69.5469 548.17 69.2949 546.693 69.0723C545.229 68.8379 544.021 68.5859 543.072 68.3164C542.123 68.0352 541.344 67.666 540.734 67.209C539.574 66.3418 538.994 64.8711 538.994 62.7969C538.994 60.9922 539.539 59.5508 540.629 58.4727C541.789 57.3359 543.412 56.7676 545.498 56.7676C546.729 56.7676 548.146 57.1777 549.752 57.998L549.418 56.6094C549.418 56.3281 549.541 56.1758 549.787 56.1523L553.268 55.8711C553.455 55.8711 553.549 56.0059 553.549 56.2754L553.162 61.6367C553.15 61.8828 553.033 62.0059 552.811 62.0059Z" fill="white"/>
<rect x="362" y="83" width="140" height="5" rx="2.5" fill="#06D6A0"/>
</svg>
